<svg xmlns="http://www.w3.org/2000/svg" viewBox="0 0 64 64" shape-rendering="crispEdges">
  <rect width="64" height="64" rx="8" fill="#090909"/>
  <rect x="8" y="0" width="2" height="2" fill="#180c08"/>
  <rect x="54" y="0" width="2" height="2" fill="#180c08"/>
  <rect x="6" y="2" width="2" height="2" fill="#180c08"/>
  <rect x="8" y="2" width="2" height="2" fill="#3a2218"/>
  <rect x="10" y="2" width="2" height="2" fill="#180c08"/>
  <rect x="52" y="2" width="2" height="2" fill="#180c08"/>
  <rect x="54" y="2" width="2" height="2" fill="#3a2218"/>
  <rect x="56" y="2" width="2" height="2" fill="#180c08"/>
  <rect x="4" y="4" width="2" height="2" fill="#180c08"/>
  <rect x="6" y="4" width="6" height="2" fill="#3a2218"/>
  <rect x="12" y="4" width="2" height="2" fill="#180c08"/>
  <rect x="50" y="4" width="2" height="2" fill="#180c08"/>
  <rect x="52" y="4" width="6" height="2" fill="#3a2218"/>
  <rect x="58" y="4" width="2" height="2" fill="#180c08"/>
  <rect x="2" y="6" width="2" height="2" fill="#180c08"/>
  <rect x="4" y="6" width="10" height="2" fill="#3a2218"/>
  <rect x="14" y="6" width="2" height="2" fill="#180c08"/>
  <rect x="48" y="6" width="2" height="2" fill="#180c08"/>
  <rect x="50" y="6" width="10" height="2" fill="#3a2218"/>
  <rect x="60" y="6" width="2" height="2" fill="#180c08"/>
  <rect x="2" y="8" width="2" height="2" fill="#180c08"/>
  <rect x="4" y="8" width="10" height="2" fill="#3a2218"/>
  <rect x="14" y="8" width="36" height="2" fill="#180c08"/>
  <rect x="50" y="8" width="10" height="2" fill="#3a2218"/>
  <rect x="60" y="8" width="2" height="2" fill="#180c08"/>
  <rect x="10" y="10" width="2" height="2" fill="#180c08"/>
  <rect x="12" y="10" width="40" height="2" fill="#bfad95"/>
  <rect x="52" y="10" width="2" height="2" fill="#180c08"/>
  <rect x="8" y="12" width="2" height="2" fill="#180c08"/>
  <rect x="10" y="12" width="44" height="2" fill="#bfad95"/>
  <rect x="54" y="12" width="2" height="2" fill="#180c08"/>
  <rect x="6" y="14" width="2" height="2" fill="#180c08"/>
  <rect x="8" y="14" width="48" height="2" fill="#bfad95"/>
  <rect x="56" y="14" width="2" height="2" fill="#180c08"/>
  <rect x="6" y="16" width="2" height="2" fill="#180c08"/>
  <rect x="8" y="16" width="48" height="2" fill="#bfad95"/>
  <rect x="56" y="16" width="2" height="2" fill="#180c08"/>
  <rect x="6" y="18" width="2" height="2" fill="#180c08"/>
  <rect x="8" y="18" width="2" height="2" fill="#f8f2e8"/>
  <rect x="10" y="18" width="6" height="2" fill="#4a3020"/>
  <rect x="16" y="18" width="10" height="2" fill="#bfad95"/>
  <rect x="26" y="18" width="12" height="2" fill="#f8f2e8"/>
  <rect x="38" y="18" width="10" height="2" fill="#bfad95"/>
  <rect x="48" y="18" width="6" height="2" fill="#4a3020"/>
  <rect x="54" y="18" width="2" height="2" fill="#bfad95"/>
  <rect x="56" y="18" width="2" height="2" fill="#180c08"/>
  <rect x="6" y="20" width="2" height="2" fill="#180c08"/>
  <rect x="8" y="20" width="6" height="2" fill="#4a3020"/>
  <rect x="14" y="20" width="12" height="2" fill="#180c08"/>
  <rect x="26" y="20" width="2" height="2" fill="#f8f2e8"/>
  <rect x="28" y="20" width="10" height="2" fill="#e8dccc"/>
  <rect x="38" y="20" width="12" height="2" fill="#180c08"/>
  <rect x="50" y="20" width="6" height="2" fill="#4a3020"/>
  <rect x="56" y="20" width="2" height="2" fill="#180c08"/>
  <rect x="6" y="22" width="2" height="2" fill="#180c08"/>
  <rect x="8" y="22" width="6" height="2" fill="#4a3020"/>
  <rect x="14" y="22" width="2" height="2" fill="#180c08"/>
  <rect x="16" y="22" width="2" height="2" fill="#ffffff"/>
  <rect x="18" y="22" width="4" height="2" fill="#d8ecff"/>
  <rect x="22" y="22" width="2" height="2" fill="#88bfee"/>
  <rect x="24" y="22" width="2" height="2" fill="#180c08"/>
  <rect x="26" y="22" width="12" height="2" fill="#e8dccc"/>
  <rect x="38" y="22" width="2" height="2" fill="#180c08"/>
  <rect x="40" y="22" width="2" height="2" fill="#88bfee"/>
  <rect x="42" y="22" width="4" height="2" fill="#d8ecff"/>
  <rect x="46" y="22" width="2" height="2" fill="#ffffff"/>
  <rect x="48" y="22" width="2" height="2" fill="#180c08"/>
  <rect x="50" y="22" width="6" height="2" fill="#4a3020"/>
  <rect x="56" y="22" width="2" height="2" fill="#180c08"/>
  <rect x="0" y="24" width="8" height="2" fill="#b0a898"/>
  <rect x="8" y="24" width="6" height="2" fill="#4a3020"/>
  <rect x="14" y="24" width="2" height="2" fill="#180c08"/>
  <rect x="16" y="24" width="4" height="2" fill="#d8ecff"/>
  <rect x="20" y="24" width="4" height="2" fill="#88bfee"/>
  <rect x="24" y="24" width="2" height="2" fill="#180c08"/>
  <rect x="26" y="24" width="12" height="2" fill="#e8dccc"/>
  <rect x="38" y="24" width="2" height="2" fill="#180c08"/>
  <rect x="40" y="24" width="4" height="2" fill="#88bfee"/>
  <rect x="44" y="24" width="4" height="2" fill="#d8ecff"/>
  <rect x="48" y="24" width="2" height="2" fill="#180c08"/>
  <rect x="50" y="24" width="6" height="2" fill="#4a3020"/>
  <rect x="56" y="24" width="8" height="2" fill="#b0a898"/>
  <rect x="6" y="26" width="2" height="2" fill="#180c08"/>
  <rect x="8" y="26" width="6" height="2" fill="#4a3020"/>
  <rect x="14" y="26" width="2" height="2" fill="#180c08"/>
  <rect x="16" y="26" width="2" height="2" fill="#d8ecff"/>
  <rect x="18" y="26" width="2" height="2" fill="#88bfee"/>
  <rect x="20" y="26" width="2" height="2" fill="#180c08"/>
  <rect x="22" y="26" width="2" height="2" fill="#88bfee"/>
  <rect x="24" y="26" width="2" height="2" fill="#180c08"/>
  <rect x="26" y="26" width="12" height="2" fill="#e8dccc"/>
  <rect x="38" y="26" width="2" height="2" fill="#180c08"/>
  <rect x="40" y="26" width="2" height="2" fill="#88bfee"/>
  <rect x="42" y="26" width="2" height="2" fill="#180c08"/>
  <rect x="44" y="26" width="2" height="2" fill="#88bfee"/>
  <rect x="46" y="26" width="2" height="2" fill="#d8ecff"/>
  <rect x="48" y="26" width="2" height="2" fill="#180c08"/>
  <rect x="50" y="26" width="6" height="2" fill="#4a3020"/>
  <rect x="56" y="26" width="2" height="2" fill="#180c08"/>
  <rect x="0" y="28" width="8" height="2" fill="#b0a898"/>
  <rect x="8" y="28" width="6" height="2" fill="#4a3020"/>
  <rect x="14" y="28" width="12" height="2" fill="#180c08"/>
  <rect x="26" y="28" width="12" height="2" fill="#e8dccc"/>
  <rect x="38" y="28" width="12" height="2" fill="#180c08"/>
  <rect x="50" y="28" width="6" height="2" fill="#4a3020"/>
  <rect x="56" y="28" width="8" height="2" fill="#b0a898"/>
  <rect x="6" y="30" width="2" height="2" fill="#180c08"/>
  <rect x="8" y="30" width="10" height="2" fill="#e8dccc"/>
  <rect x="18" y="30" width="28" height="2" fill="#f5f2ed"/>
  <rect x="46" y="30" width="10" height="2" fill="#c8b8a0"/>
  <rect x="56" y="30" width="2" height="2" fill="#180c08"/>
  <rect x="0" y="32" width="8" height="2" fill="#b0a898"/>
  <rect x="8" y="32" width="10" height="2" fill="#e8dccc"/>
  <rect x="18" y="32" width="10" height="2" fill="#f5f2ed"/>
  <rect x="28" y="32" width="8" height="2" fill="#180c08"/>
  <rect x="36" y="32" width="10" height="2" fill="#f5f2ed"/>
  <rect x="46" y="32" width="10" height="2" fill="#c8b8a0"/>
  <rect x="56" y="32" width="8" height="2" fill="#b0a898"/>
  <rect x="6" y="34" width="2" height="2" fill="#180c08"/>
  <rect x="8" y="34" width="10" height="2" fill="#e8dccc"/>
  <rect x="18" y="34" width="12" height="2" fill="#f5f2ed"/>
  <rect x="30" y="34" width="4" height="2" fill="#180c08"/>
  <rect x="34" y="34" width="12" height="2" fill="#f5f2ed"/>
  <rect x="46" y="34" width="10" height="2" fill="#c8b8a0"/>
  <rect x="56" y="34" width="2" height="2" fill="#180c08"/>
  <rect x="6" y="36" width="2" height="2" fill="#180c08"/>
  <rect x="8" y="36" width="10" height="2" fill="#e8dccc"/>
  <rect x="18" y="36" width="12" height="2" fill="#f5f2ed"/>
  <rect x="30" y="36" width="2" height="2" fill="#180c08"/>
  <rect x="32" y="36" width="14" height="2" fill="#f5f2ed"/>
  <rect x="46" y="36" width="10" height="2" fill="#c8b8a0"/>
  <rect x="56" y="36" width="2" height="2" fill="#180c08"/>
  <rect x="6" y="38" width="2" height="2" fill="#180c08"/>
  <rect x="8" y="38" width="10" height="2" fill="#e8dccc"/>
  <rect x="18" y="38" width="8" height="2" fill="#f5f2ed"/>
  <rect x="26" y="38" width="2" height="2" fill="#3a2218"/>
  <rect x="28" y="38" width="8" height="2" fill="#f5f2ed"/>
  <rect x="36" y="38" width="2" height="2" fill="#3a2218"/>
  <rect x="38" y="38" width="8" height="2" fill="#f5f2ed"/>
  <rect x="46" y="38" width="10" height="2" fill="#c8b8a0"/>
  <rect x="56" y="38" width="2" height="2" fill="#180c08"/>
  <rect x="8" y="40" width="2" height="2" fill="#180c08"/>
  <rect x="10" y="40" width="8" height="2" fill="#c8b8a0"/>
  <rect x="18" y="40" width="10" height="2" fill="#f5f2ed"/>
  <rect x="28" y="40" width="8" height="2" fill="#3a2218"/>
  <rect x="36" y="40" width="10" height="2" fill="#f5f2ed"/>
  <rect x="46" y="40" width="8" height="2" fill="#c8b8a0"/>
  <rect x="54" y="40" width="2" height="2" fill="#180c08"/>
  <rect x="8" y="42" width="2" height="2" fill="#180c08"/>
  <rect x="10" y="42" width="44" height="2" fill="#f5f2ed"/>
  <rect x="54" y="42" width="2" height="2" fill="#180c08"/>
  <rect x="10" y="44" width="2" height="2" fill="#180c08"/>
  <rect x="12" y="44" width="18" height="2" fill="#cc2020"/>
  <rect x="30" y="44" width="4" height="2" fill="#ffcc00"/>
  <rect x="34" y="44" width="18" height="2" fill="#cc2020"/>
  <rect x="52" y="44" width="2" height="2" fill="#180c08"/>
  <rect x="14" y="46" width="2" height="2" fill="#180c08"/>
  <rect x="16" y="46" width="14" height="2" fill="#cc2020"/>
  <rect x="30" y="46" width="4" height="2" fill="#ffcc00"/>
  <rect x="34" y="46" width="14" height="2" fill="#cc2020"/>
  <rect x="48" y="46" width="2" height="2" fill="#180c08"/>
  <rect x="28" y="48" width="8" height="2" fill="#ffcc00"/>
  <rect x="26" y="50" width="2" height="2" fill="#180c08"/>
  <rect x="28" y="50" width="10" height="2" fill="#ffcc00"/>
  <rect x="38" y="50" width="2" height="2" fill="#180c08"/>
  <rect x="24" y="52" width="2" height="2" fill="#180c08"/>
  <rect x="26" y="52" width="12" height="2" fill="#ffcc00"/>
  <rect x="38" y="52" width="2" height="2" fill="#180c08"/>
  <rect x="26" y="54" width="2" height="2" fill="#180c08"/>
  <rect x="28" y="54" width="10" height="2" fill="#ffcc00"/>
  <rect x="38" y="54" width="2" height="2" fill="#180c08"/>
  <rect x="28" y="56" width="8" height="2" fill="#ffcc00"/>
</svg>
