<svg xmlns="http://www.w3.org/2000/svg" viewBox="0 0 32 32" shape-rendering="crispEdges">
  <rect width="32" height="32" fill="#090909" rx="4"></rect>
  <rect x="4" y="0" width="1" height="1" fill="#180c08"></rect>
  <rect x="27" y="0" width="1" height="1" fill="#180c08"></rect>
  <rect x="3" y="1" width="1" height="1" fill="#180c08"></rect>
  <rect x="4" y="1" width="1" height="1" fill="#3a2218"></rect>
  <rect x="5" y="1" width="1" height="1" fill="#180c08"></rect>
  <rect x="26" y="1" width="1" height="1" fill="#180c08"></rect>
  <rect x="27" y="1" width="1" height="1" fill="#3a2218"></rect>
  <rect x="28" y="1" width="1" height="1" fill="#180c08"></rect>
  <rect x="2" y="2" width="1" height="1" fill="#180c08"></rect>
  <rect x="3" y="2" width="3" height="1" fill="#3a2218"></rect>
  <rect x="6" y="2" width="1" height="1" fill="#180c08"></rect>
  <rect x="25" y="2" width="1" height="1" fill="#180c08"></rect>
  <rect x="26" y="2" width="3" height="1" fill="#3a2218"></rect>
  <rect x="29" y="2" width="1" height="1" fill="#180c08"></rect>
  <rect x="1" y="3" width="1" height="1" fill="#180c08"></rect>
  <rect x="2" y="3" width="5" height="1" fill="#3a2218"></rect>
  <rect x="7" y="3" width="1" height="1" fill="#180c08"></rect>
  <rect x="24" y="3" width="1" height="1" fill="#180c08"></rect>
  <rect x="25" y="3" width="5" height="1" fill="#3a2218"></rect>
  <rect x="30" y="3" width="1" height="1" fill="#180c08"></rect>
  <rect x="1" y="4" width="1" height="1" fill="#180c08"></rect>
  <rect x="2" y="4" width="5" height="1" fill="#3a2218"></rect>
  <rect x="7" y="4" width="18" height="1" fill="#180c08"></rect>
  <rect x="25" y="4" width="5" height="1" fill="#3a2218"></rect>
  <rect x="30" y="4" width="1" height="1" fill="#180c08"></rect>
  <rect x="5" y="5" width="1" height="1" fill="#180c08"></rect>
  <rect x="6" y="5" width="20" height="1" fill="#bfad95"></rect>
  <rect x="26" y="5" width="1" height="1" fill="#180c08"></rect>
  <rect x="4" y="6" width="1" height="1" fill="#180c08"></rect>
  <rect x="5" y="6" width="22" height="1" fill="#bfad95"></rect>
  <rect x="27" y="6" width="1" height="1" fill="#180c08"></rect>
  <rect x="3" y="7" width="1" height="1" fill="#180c08"></rect>
  <rect x="4" y="7" width="24" height="1" fill="#bfad95"></rect>
  <rect x="28" y="7" width="1" height="1" fill="#180c08"></rect>
  <rect x="3" y="8" width="1" height="1" fill="#180c08"></rect>
  <rect x="4" y="8" width="24" height="1" fill="#bfad95"></rect>
  <rect x="28" y="8" width="1" height="1" fill="#180c08"></rect>
  <rect x="3" y="9" width="1" height="1" fill="#180c08"></rect>
  <rect x="4" y="9" width="1" height="1" fill="#f8f2e8"></rect>
  <rect x="5" y="9" width="3" height="1" fill="#4a3020"></rect>
  <rect x="8" y="9" width="5" height="1" fill="#bfad95"></rect>
  <rect x="13" y="9" width="6" height="1" fill="#f8f2e8"></rect>
  <rect x="19" y="9" width="5" height="1" fill="#bfad95"></rect>
  <rect x="24" y="9" width="3" height="1" fill="#4a3020"></rect>
  <rect x="27" y="9" width="1" height="1" fill="#bfad95"></rect>
  <rect x="28" y="9" width="1" height="1" fill="#180c08"></rect>
  <rect x="3" y="10" width="1" height="1" fill="#180c08"></rect>
  <rect x="4" y="10" width="3" height="1" fill="#4a3020"></rect>
  <rect x="7" y="10" width="6" height="1" fill="#180c08"></rect>
  <rect x="13" y="10" width="1" height="1" fill="#f8f2e8"></rect>
  <rect x="14" y="10" width="5" height="1" fill="#e8dccc"></rect>
  <rect x="19" y="10" width="6" height="1" fill="#180c08"></rect>
  <rect x="25" y="10" width="3" height="1" fill="#4a3020"></rect>
  <rect x="28" y="10" width="1" height="1" fill="#180c08"></rect>
  <rect x="3" y="11" width="1" height="1" fill="#180c08"></rect>
  <rect x="4" y="11" width="3" height="1" fill="#4a3020"></rect>
  <rect x="7" y="11" width="1" height="1" fill="#180c08"></rect>
  <rect x="8" y="11" width="1" height="1" fill="#ffffff"></rect>
  <rect x="9" y="11" width="2" height="1" fill="#d8ecff"></rect>
  <rect x="11" y="11" width="1" height="1" fill="#88bfee"></rect>
  <rect x="12" y="11" width="1" height="1" fill="#180c08"></rect>
  <rect x="13" y="11" width="6" height="1" fill="#e8dccc"></rect>
  <rect x="19" y="11" width="1" height="1" fill="#180c08"></rect>
  <rect x="20" y="11" width="1" height="1" fill="#88bfee"></rect>
  <rect x="21" y="11" width="2" height="1" fill="#d8ecff"></rect>
  <rect x="23" y="11" width="1" height="1" fill="#ffffff"></rect>
  <rect x="24" y="11" width="1" height="1" fill="#180c08"></rect>
  <rect x="25" y="11" width="3" height="1" fill="#4a3020"></rect>
  <rect x="28" y="11" width="1" height="1" fill="#180c08"></rect>
  <rect x="0" y="12" width="4" height="1" fill="#b0a898"></rect>
  <rect x="4" y="12" width="3" height="1" fill="#4a3020"></rect>
  <rect x="7" y="12" width="1" height="1" fill="#180c08"></rect>
  <rect x="8" y="12" width="2" height="1" fill="#d8ecff"></rect>
  <rect x="10" y="12" width="2" height="1" fill="#88bfee"></rect>
  <rect x="12" y="12" width="1" height="1" fill="#180c08"></rect>
  <rect x="13" y="12" width="6" height="1" fill="#e8dccc"></rect>
  <rect x="19" y="12" width="1" height="1" fill="#180c08"></rect>
  <rect x="20" y="12" width="2" height="1" fill="#88bfee"></rect>
  <rect x="22" y="12" width="2" height="1" fill="#d8ecff"></rect>
  <rect x="24" y="12" width="1" height="1" fill="#180c08"></rect>
  <rect x="25" y="12" width="3" height="1" fill="#4a3020"></rect>
  <rect x="28" y="12" width="4" height="1" fill="#b0a898"></rect>
  <rect x="3" y="13" width="1" height="1" fill="#180c08"></rect>
  <rect x="4" y="13" width="3" height="1" fill="#4a3020"></rect>
  <rect x="7" y="13" width="1" height="1" fill="#180c08"></rect>
  <rect x="8" y="13" width="1" height="1" fill="#d8ecff"></rect>
  <rect x="9" y="13" width="1" height="1" fill="#88bfee"></rect>
  <rect x="10" y="13" width="1" height="1" fill="#180c08"></rect>
  <rect x="11" y="13" width="1" height="1" fill="#88bfee"></rect>
  <rect x="12" y="13" width="1" height="1" fill="#180c08"></rect>
  <rect x="13" y="13" width="6" height="1" fill="#e8dccc"></rect>
  <rect x="19" y="13" width="1" height="1" fill="#180c08"></rect>
  <rect x="20" y="13" width="1" height="1" fill="#88bfee"></rect>
  <rect x="21" y="13" width="1" height="1" fill="#180c08"></rect>
  <rect x="22" y="13" width="1" height="1" fill="#88bfee"></rect>
  <rect x="23" y="13" width="1" height="1" fill="#d8ecff"></rect>
  <rect x="24" y="13" width="1" height="1" fill="#180c08"></rect>
  <rect x="25" y="13" width="3" height="1" fill="#4a3020"></rect>
  <rect x="28" y="13" width="1" height="1" fill="#180c08"></rect>
  <rect x="0" y="14" width="4" height="1" fill="#b0a898"></rect>
  <rect x="4" y="14" width="3" height="1" fill="#4a3020"></rect>
  <rect x="7" y="14" width="6" height="1" fill="#180c08"></rect>
  <rect x="13" y="14" width="6" height="1" fill="#e8dccc"></rect>
  <rect x="19" y="14" width="6" height="1" fill="#180c08"></rect>
  <rect x="25" y="14" width="3" height="1" fill="#4a3020"></rect>
  <rect x="28" y="14" width="4" height="1" fill="#b0a898"></rect>
  <rect x="3" y="15" width="1" height="1" fill="#180c08"></rect>
  <rect x="4" y="15" width="5" height="1" fill="#e8dccc"></rect>
  <rect x="9" y="15" width="14" height="1" fill="#f5f2ed"></rect>
  <rect x="23" y="15" width="5" height="1" fill="#c8b8a0"></rect>
  <rect x="28" y="15" width="1" height="1" fill="#180c08"></rect>
  <rect x="0" y="16" width="4" height="1" fill="#b0a898"></rect>
  <rect x="4" y="16" width="5" height="1" fill="#e8dccc"></rect>
  <rect x="9" y="16" width="5" height="1" fill="#f5f2ed"></rect>
  <rect x="14" y="16" width="4" height="1" fill="#180c08"></rect>
  <rect x="18" y="16" width="5" height="1" fill="#f5f2ed"></rect>
  <rect x="23" y="16" width="5" height="1" fill="#c8b8a0"></rect>
  <rect x="28" y="16" width="4" height="1" fill="#b0a898"></rect>
  <rect x="3" y="17" width="1" height="1" fill="#180c08"></rect>
  <rect x="4" y="17" width="5" height="1" fill="#e8dccc"></rect>
  <rect x="9" y="17" width="6" height="1" fill="#f5f2ed"></rect>
  <rect x="15" y="17" width="2" height="1" fill="#180c08"></rect>
  <rect x="17" y="17" width="6" height="1" fill="#f5f2ed"></rect>
  <rect x="23" y="17" width="5" height="1" fill="#c8b8a0"></rect>
  <rect x="28" y="17" width="1" height="1" fill="#180c08"></rect>
  <rect x="3" y="18" width="1" height="1" fill="#180c08"></rect>
  <rect x="4" y="18" width="5" height="1" fill="#e8dccc"></rect>
  <rect x="9" y="18" width="6" height="1" fill="#f5f2ed"></rect>
  <rect x="15" y="18" width="1" height="1" fill="#180c08"></rect>
  <rect x="16" y="18" width="7" height="1" fill="#f5f2ed"></rect>
  <rect x="23" y="18" width="5" height="1" fill="#c8b8a0"></rect>
  <rect x="28" y="18" width="1" height="1" fill="#180c08"></rect>
  <rect x="3" y="19" width="1" height="1" fill="#180c08"></rect>
  <rect x="4" y="19" width="5" height="1" fill="#e8dccc"></rect>
  <rect x="9" y="19" width="4" height="1" fill="#f5f2ed"></rect>
  <rect x="13" y="19" width="1" height="1" fill="#3a2218"></rect>
  <rect x="14" y="19" width="4" height="1" fill="#f5f2ed"></rect>
  <rect x="18" y="19" width="1" height="1" fill="#3a2218"></rect>
  <rect x="19" y="19" width="4" height="1" fill="#f5f2ed"></rect>
  <rect x="23" y="19" width="5" height="1" fill="#c8b8a0"></rect>
  <rect x="28" y="19" width="1" height="1" fill="#180c08"></rect>
  <rect x="4" y="20" width="1" height="1" fill="#180c08"></rect>
  <rect x="5" y="20" width="4" height="1" fill="#c8b8a0"></rect>
  <rect x="9" y="20" width="5" height="1" fill="#f5f2ed"></rect>
  <rect x="14" y="20" width="4" height="1" fill="#3a2218"></rect>
  <rect x="18" y="20" width="5" height="1" fill="#f5f2ed"></rect>
  <rect x="23" y="20" width="4" height="1" fill="#c8b8a0"></rect>
  <rect x="27" y="20" width="1" height="1" fill="#180c08"></rect>
  <rect x="4" y="21" width="1" height="1" fill="#180c08"></rect>
  <rect x="5" y="21" width="22" height="1" fill="#f5f2ed"></rect>
  <rect x="27" y="21" width="1" height="1" fill="#180c08"></rect>
  <rect x="5" y="22" width="1" height="1" fill="#180c08"></rect>
  <rect x="6" y="22" width="9" height="1" fill="#cc2020"></rect>
  <rect x="15" y="22" width="2" height="1" fill="#ffcc00"></rect>
  <rect x="17" y="22" width="9" height="1" fill="#cc2020"></rect>
  <rect x="26" y="22" width="1" height="1" fill="#180c08"></rect>
  <rect x="7" y="23" width="1" height="1" fill="#180c08"></rect>
  <rect x="8" y="23" width="7" height="1" fill="#cc2020"></rect>
  <rect x="15" y="23" width="2" height="1" fill="#ffcc00"></rect>
  <rect x="17" y="23" width="7" height="1" fill="#cc2020"></rect>
  <rect x="24" y="23" width="1" height="1" fill="#180c08"></rect>
  <rect x="14" y="24" width="4" height="1" fill="#ffcc00"></rect>
  <rect x="13" y="25" width="1" height="1" fill="#180c08"></rect>
  <rect x="14" y="25" width="5" height="1" fill="#ffcc00"></rect>
  <rect x="19" y="25" width="1" height="1" fill="#180c08"></rect>
  <rect x="12" y="26" width="1" height="1" fill="#180c08"></rect>
  <rect x="13" y="26" width="6" height="1" fill="#ffcc00"></rect>
  <rect x="19" y="26" width="1" height="1" fill="#180c08"></rect>
  <rect x="13" y="27" width="1" height="1" fill="#180c08"></rect>
  <rect x="14" y="27" width="5" height="1" fill="#ffcc00"></rect>
  <rect x="19" y="27" width="1" height="1" fill="#180c08"></rect>
  <rect x="14" y="28" width="4" height="1" fill="#ffcc00"></rect>
</svg>
