<svg xmlns="http://www.w3.org/2000/svg" viewBox="0 0 64 64" shape-rendering="crispEdges">
  <rect width="64" height="64" rx="8" fill="#090909"/>
  <rect x="4" y="16" width="1" height="1" fill="#180c08"/>
  <rect x="27" y="16" width="1" height="1" fill="#180c08"/>
  <rect x="3" y="17" width="1" height="1" fill="#180c08"/>
  <rect x="4" y="17" width="1" height="1" fill="#3a2218"/>
  <rect x="5" y="17" width="1" height="1" fill="#180c08"/>
  <rect x="26" y="17" width="1" height="1" fill="#180c08"/>
  <rect x="27" y="17" width="1" height="1" fill="#3a2218"/>
  <rect x="28" y="17" width="1" height="1" fill="#180c08"/>
  <rect x="2" y="18" width="1" height="1" fill="#180c08"/>
  <rect x="3" y="18" width="3" height="1" fill="#3a2218"/>
  <rect x="6" y="18" width="1" height="1" fill="#180c08"/>
  <rect x="25" y="18" width="1" height="1" fill="#180c08"/>
  <rect x="26" y="18" width="3" height="1" fill="#3a2218"/>
  <rect x="29" y="18" width="1" height="1" fill="#180c08"/>
  <rect x="1" y="19" width="1" height="1" fill="#180c08"/>
  <rect x="2" y="19" width="5" height="1" fill="#3a2218"/>
  <rect x="7" y="19" width="1" height="1" fill="#180c08"/>
  <rect x="24" y="19" width="1" height="1" fill="#180c08"/>
  <rect x="25" y="19" width="5" height="1" fill="#3a2218"/>
  <rect x="30" y="19" width="1" height="1" fill="#180c08"/>
  <rect x="1" y="20" width="1" height="1" fill="#180c08"/>
  <rect x="2" y="20" width="5" height="1" fill="#3a2218"/>
  <rect x="7" y="20" width="18" height="1" fill="#180c08"/>
  <rect x="25" y="20" width="5" height="1" fill="#3a2218"/>
  <rect x="30" y="20" width="1" height="1" fill="#180c08"/>
  <rect x="5" y="21" width="1" height="1" fill="#180c08"/>
  <rect x="6" y="21" width="20" height="1" fill="#bfad95"/>
  <rect x="26" y="21" width="1" height="1" fill="#180c08"/>
  <rect x="4" y="22" width="1" height="1" fill="#180c08"/>
  <rect x="5" y="22" width="22" height="1" fill="#bfad95"/>
  <rect x="27" y="22" width="1" height="1" fill="#180c08"/>
  <rect x="3" y="23" width="1" height="1" fill="#180c08"/>
  <rect x="4" y="23" width="24" height="1" fill="#bfad95"/>
  <rect x="28" y="23" width="1" height="1" fill="#180c08"/>
  <rect x="3" y="24" width="1" height="1" fill="#180c08"/>
  <rect x="4" y="24" width="24" height="1" fill="#bfad95"/>
  <rect x="28" y="24" width="1" height="1" fill="#180c08"/>
  <rect x="3" y="25" width="1" height="1" fill="#180c08"/>
  <rect x="4" y="25" width="1" height="1" fill="#f8f2e8"/>
  <rect x="5" y="25" width="3" height="1" fill="#4a3020"/>
  <rect x="8" y="25" width="5" height="1" fill="#bfad95"/>
  <rect x="13" y="25" width="6" height="1" fill="#f8f2e8"/>
  <rect x="19" y="25" width="5" height="1" fill="#bfad95"/>
  <rect x="24" y="25" width="3" height="1" fill="#4a3020"/>
  <rect x="27" y="25" width="1" height="1" fill="#bfad95"/>
  <rect x="28" y="25" width="1" height="1" fill="#180c08"/>
  <rect x="3" y="26" width="1" height="1" fill="#180c08"/>
  <rect x="4" y="26" width="3" height="1" fill="#4a3020"/>
  <rect x="7" y="26" width="6" height="1" fill="#180c08"/>
  <rect x="13" y="26" width="1" height="1" fill="#f8f2e8"/>
  <rect x="14" y="26" width="5" height="1" fill="#e8dccc"/>
  <rect x="19" y="26" width="6" height="1" fill="#180c08"/>
  <rect x="25" y="26" width="3" height="1" fill="#4a3020"/>
  <rect x="28" y="26" width="1" height="1" fill="#180c08"/>
  <rect x="3" y="27" width="1" height="1" fill="#180c08"/>
  <rect x="4" y="27" width="3" height="1" fill="#4a3020"/>
  <rect x="7" y="27" width="1" height="1" fill="#180c08"/>
  <rect x="8" y="27" width="1" height="1" fill="#ffffff"/>
  <rect x="9" y="27" width="2" height="1" fill="#d8ecff"/>
  <rect x="11" y="27" width="1" height="1" fill="#88bfee"/>
  <rect x="12" y="27" width="1" height="1" fill="#180c08"/>
  <rect x="13" y="27" width="6" height="1" fill="#e8dccc"/>
  <rect x="19" y="27" width="1" height="1" fill="#180c08"/>
  <rect x="20" y="27" width="1" height="1" fill="#88bfee"/>
  <rect x="21" y="27" width="2" height="1" fill="#d8ecff"/>
  <rect x="23" y="27" width="1" height="1" fill="#ffffff"/>
  <rect x="24" y="27" width="1" height="1" fill="#180c08"/>
  <rect x="25" y="27" width="3" height="1" fill="#4a3020"/>
  <rect x="28" y="27" width="1" height="1" fill="#180c08"/>
  <rect x="0" y="28" width="4" height="1" fill="#b0a898"/>
  <rect x="4" y="28" width="3" height="1" fill="#4a3020"/>
  <rect x="7" y="28" width="1" height="1" fill="#180c08"/>
  <rect x="8" y="28" width="2" height="1" fill="#d8ecff"/>
  <rect x="10" y="28" width="2" height="1" fill="#88bfee"/>
  <rect x="12" y="28" width="1" height="1" fill="#180c08"/>
  <rect x="13" y="28" width="6" height="1" fill="#e8dccc"/>
  <rect x="19" y="28" width="1" height="1" fill="#180c08"/>
  <rect x="20" y="28" width="2" height="1" fill="#88bfee"/>
  <rect x="22" y="28" width="2" height="1" fill="#d8ecff"/>
  <rect x="24" y="28" width="1" height="1" fill="#180c08"/>
  <rect x="25" y="28" width="3" height="1" fill="#4a3020"/>
  <rect x="28" y="28" width="4" height="1" fill="#b0a898"/>
  <rect x="3" y="29" width="1" height="1" fill="#180c08"/>
  <rect x="4" y="29" width="3" height="1" fill="#4a3020"/>
  <rect x="7" y="29" width="1" height="1" fill="#180c08"/>
  <rect x="8" y="29" width="1" height="1" fill="#d8ecff"/>
  <rect x="9" y="29" width="1" height="1" fill="#88bfee"/>
  <rect x="10" y="29" width="1" height="1" fill="#180c08"/>
  <rect x="11" y="29" width="1" height="1" fill="#88bfee"/>
  <rect x="12" y="29" width="1" height="1" fill="#180c08"/>
  <rect x="13" y="29" width="6" height="1" fill="#e8dccc"/>
  <rect x="19" y="29" width="1" height="1" fill="#180c08"/>
  <rect x="20" y="29" width="1" height="1" fill="#88bfee"/>
  <rect x="21" y="29" width="1" height="1" fill="#180c08"/>
  <rect x="22" y="29" width="1" height="1" fill="#88bfee"/>
  <rect x="23" y="29" width="1" height="1" fill="#d8ecff"/>
  <rect x="24" y="29" width="1" height="1" fill="#180c08"/>
  <rect x="25" y="29" width="3" height="1" fill="#4a3020"/>
  <rect x="28" y="29" width="1" height="1" fill="#180c08"/>
  <rect x="0" y="30" width="4" height="1" fill="#b0a898"/>
  <rect x="4" y="30" width="3" height="1" fill="#4a3020"/>
  <rect x="7" y="30" width="6" height="1" fill="#180c08"/>
  <rect x="13" y="30" width="6" height="1" fill="#e8dccc"/>
  <rect x="19" y="30" width="6" height="1" fill="#180c08"/>
  <rect x="25" y="30" width="3" height="1" fill="#4a3020"/>
  <rect x="28" y="30" width="4" height="1" fill="#b0a898"/>
  <rect x="3" y="31" width="1" height="1" fill="#180c08"/>
  <rect x="4" y="31" width="5" height="1" fill="#e8dccc"/>
  <rect x="9" y="31" width="14" height="1" fill="#f5f2ed"/>
  <rect x="23" y="31" width="5" height="1" fill="#c8b8a0"/>
  <rect x="28" y="31" width="1" height="1" fill="#180c08"/>
  <rect x="0" y="32" width="4" height="1" fill="#b0a898"/>
  <rect x="4" y="32" width="5" height="1" fill="#e8dccc"/>
  <rect x="9" y="32" width="5" height="1" fill="#f5f2ed"/>
  <rect x="14" y="32" width="4" height="1" fill="#180c08"/>
  <rect x="18" y="32" width="5" height="1" fill="#f5f2ed"/>
  <rect x="23" y="32" width="5" height="1" fill="#c8b8a0"/>
  <rect x="28" y="32" width="4" height="1" fill="#b0a898"/>
  <rect x="3" y="33" width="1" height="1" fill="#180c08"/>
  <rect x="4" y="33" width="5" height="1" fill="#e8dccc"/>
  <rect x="9" y="33" width="6" height="1" fill="#f5f2ed"/>
  <rect x="15" y="33" width="2" height="1" fill="#180c08"/>
  <rect x="17" y="33" width="6" height="1" fill="#f5f2ed"/>
  <rect x="23" y="33" width="5" height="1" fill="#c8b8a0"/>
  <rect x="28" y="33" width="1" height="1" fill="#180c08"/>
  <rect x="3" y="34" width="1" height="1" fill="#180c08"/>
  <rect x="4" y="34" width="5" height="1" fill="#e8dccc"/>
  <rect x="9" y="34" width="6" height="1" fill="#f5f2ed"/>
  <rect x="15" y="34" width="1" height="1" fill="#180c08"/>
  <rect x="16" y="34" width="7" height="1" fill="#f5f2ed"/>
  <rect x="23" y="34" width="5" height="1" fill="#c8b8a0"/>
  <rect x="28" y="34" width="1" height="1" fill="#180c08"/>
  <rect x="3" y="35" width="1" height="1" fill="#180c08"/>
  <rect x="4" y="35" width="5" height="1" fill="#e8dccc"/>
  <rect x="9" y="35" width="4" height="1" fill="#f5f2ed"/>
  <rect x="13" y="35" width="1" height="1" fill="#3a2218"/>
  <rect x="14" y="35" width="4" height="1" fill="#f5f2ed"/>
  <rect x="18" y="35" width="1" height="1" fill="#3a2218"/>
  <rect x="19" y="35" width="4" height="1" fill="#f5f2ed"/>
  <rect x="23" y="35" width="5" height="1" fill="#c8b8a0"/>
  <rect x="28" y="35" width="1" height="1" fill="#180c08"/>
  <rect x="4" y="36" width="1" height="1" fill="#180c08"/>
  <rect x="5" y="36" width="4" height="1" fill="#c8b8a0"/>
  <rect x="9" y="36" width="5" height="1" fill="#f5f2ed"/>
  <rect x="14" y="36" width="4" height="1" fill="#3a2218"/>
  <rect x="18" y="36" width="5" height="1" fill="#f5f2ed"/>
  <rect x="23" y="36" width="4" height="1" fill="#c8b8a0"/>
  <rect x="27" y="36" width="1" height="1" fill="#180c08"/>
  <rect x="4" y="37" width="1" height="1" fill="#180c08"/>
  <rect x="5" y="37" width="22" height="1" fill="#f5f2ed"/>
  <rect x="27" y="37" width="1" height="1" fill="#180c08"/>
  <rect x="5" y="38" width="1" height="1" fill="#180c08"/>
  <rect x="6" y="38" width="9" height="1" fill="#cc2020"/>
  <rect x="15" y="38" width="2" height="1" fill="#ffcc00"/>
  <rect x="17" y="38" width="9" height="1" fill="#cc2020"/>
  <rect x="26" y="38" width="1" height="1" fill="#180c08"/>
  <rect x="7" y="39" width="1" height="1" fill="#180c08"/>
  <rect x="8" y="39" width="7" height="1" fill="#cc2020"/>
  <rect x="15" y="39" width="2" height="1" fill="#ffcc00"/>
  <rect x="17" y="39" width="7" height="1" fill="#cc2020"/>
  <rect x="24" y="39" width="1" height="1" fill="#180c08"/>
  <rect x="14" y="40" width="4" height="1" fill="#ffcc00"/>
  <rect x="13" y="41" width="1" height="1" fill="#180c08"/>
  <rect x="14" y="41" width="5" height="1" fill="#ffcc00"/>
  <rect x="19" y="41" width="1" height="1" fill="#180c08"/>
  <rect x="12" y="42" width="1" height="1" fill="#180c08"/>
  <rect x="13" y="42" width="6" height="1" fill="#ffcc00"/>
  <rect x="19" y="42" width="1" height="1" fill="#180c08"/>
  <rect x="13" y="43" width="1" height="1" fill="#180c08"/>
  <rect x="14" y="43" width="5" height="1" fill="#ffcc00"/>
  <rect x="19" y="43" width="1" height="1" fill="#180c08"/>
  <rect x="14" y="44" width="4" height="1" fill="#ffcc00"/>
  <rect x="36" y="16" width="1" height="1" fill="#1a1410"/>
  <rect x="59" y="16" width="1" height="1" fill="#1a1410"/>
  <rect x="35" y="17" width="1" height="1" fill="#1a1410"/>
  <rect x="36" y="17" width="1" height="1" fill="#1a1008"/>
  <rect x="37" y="17" width="1" height="1" fill="#1a1410"/>
  <rect x="58" y="17" width="1" height="1" fill="#1a1410"/>
  <rect x="59" y="17" width="1" height="1" fill="#1a1008"/>
  <rect x="60" y="17" width="1" height="1" fill="#1a1410"/>
  <rect x="34" y="18" width="1" height="1" fill="#1a1410"/>
  <rect x="35" y="18" width="3" height="1" fill="#1a1008"/>
  <rect x="38" y="18" width="1" height="1" fill="#1a1410"/>
  <rect x="57" y="18" width="1" height="1" fill="#1a1410"/>
  <rect x="58" y="18" width="3" height="1" fill="#1a1008"/>
  <rect x="61" y="18" width="1" height="1" fill="#1a1410"/>
  <rect x="33" y="19" width="1" height="1" fill="#1a1410"/>
  <rect x="34" y="19" width="5" height="1" fill="#1a1008"/>
  <rect x="39" y="19" width="1" height="1" fill="#1a1410"/>
  <rect x="56" y="19" width="1" height="1" fill="#1a1410"/>
  <rect x="57" y="19" width="5" height="1" fill="#1a1008"/>
  <rect x="62" y="19" width="1" height="1" fill="#1a1410"/>
  <rect x="33" y="20" width="1" height="1" fill="#1a1410"/>
  <rect x="34" y="20" width="5" height="1" fill="#1a1008"/>
  <rect x="39" y="20" width="3" height="1" fill="#5a4830"/>
  <rect x="42" y="20" width="4" height="1" fill="#c8b888"/>
  <rect x="46" y="20" width="2" height="1" fill="#5a4830"/>
  <rect x="48" y="20" width="6" height="1" fill="#c8b888"/>
  <rect x="54" y="20" width="3" height="1" fill="#5a4830"/>
  <rect x="57" y="20" width="5" height="1" fill="#1a1008"/>
  <rect x="62" y="20" width="1" height="1" fill="#1a1410"/>
  <rect x="37" y="21" width="1" height="1" fill="#1a1410"/>
  <rect x="38" y="21" width="1" height="1" fill="#5a4830"/>
  <rect x="39" y="21" width="2" height="1" fill="#5a4830"/>
  <rect x="41" y="21" width="5" height="1" fill="#e0d0a8"/>
  <rect x="46" y="21" width="2" height="1" fill="#5a4830"/>
  <rect x="48" y="21" width="5" height="1" fill="#e0d0a8"/>
  <rect x="53" y="21" width="2" height="1" fill="#5a4830"/>
  <rect x="55" y="21" width="1" height="1" fill="#5a4830"/>
  <rect x="56" y="21" width="1" height="1" fill="#c8b888"/>
  <rect x="57" y="21" width="1" height="1" fill="#c8b888"/>
  <rect x="58" y="21" width="1" height="1" fill="#1a1410"/>
  <rect x="36" y="22" width="1" height="1" fill="#1a1410"/>
  <rect x="37" y="22" width="1" height="1" fill="#e0d0a8"/>
  <rect x="38" y="22" width="1" height="1" fill="#5a4830"/>
  <rect x="39" y="22" width="2" height="1" fill="#5a4830"/>
  <rect x="41" y="22" width="5" height="1" fill="#e0d0a8"/>
  <rect x="46" y="22" width="2" height="1" fill="#5a4830"/>
  <rect x="48" y="22" width="5" height="1" fill="#e0d0a8"/>
  <rect x="53" y="22" width="2" height="1" fill="#5a4830"/>
  <rect x="55" y="22" width="2" height="1" fill="#5a4830"/>
  <rect x="57" y="22" width="2" height="1" fill="#c8b888"/>
  <rect x="59" y="22" width="1" height="1" fill="#1a1410"/>
  <rect x="35" y="23" width="1" height="1" fill="#1a1410"/>
  <rect x="36" y="23" width="2" height="1" fill="#e0d0a8"/>
  <rect x="38" y="23" width="3" height="1" fill="#5a4830"/>
  <rect x="41" y="23" width="13" height="1" fill="#c8b888"/>
  <rect x="54" y="23" width="3" height="1" fill="#5a4830"/>
  <rect x="57" y="23" width="2" height="1" fill="#c8b888"/>
  <rect x="59" y="23" width="1" height="1" fill="#1a1410"/>
  <rect x="35" y="24" width="1" height="1" fill="#1a1410"/>
  <rect x="36" y="24" width="3" height="1" fill="#c8b888"/>
  <rect x="39" y="24" width="2" height="1" fill="#5a4830"/>
  <rect x="41" y="24" width="14" height="1" fill="#c8b888"/>
  <rect x="55" y="24" width="2" height="1" fill="#5a4830"/>
  <rect x="57" y="24" width="3" height="1" fill="#c8b888"/>
  <rect x="60" y="24" width="1" height="1" fill="#1a1410"/>
  <rect x="35" y="25" width="1" height="1" fill="#1a1410"/>
  <rect x="36" y="25" width="10" height="1" fill="#e0d0a8"/>
  <rect x="46" y="25" width="14" height="1" fill="#c8b888"/>
  <rect x="60" y="25" width="1" height="1" fill="#1a1410"/>
  <rect x="35" y="26" width="1" height="1" fill="#1a1410"/>
  <rect x="36" y="26" width="3" height="1" fill="#c8b888"/>
  <rect x="39" y="26" width="6" height="1" fill="#1a1410"/>
  <rect x="45" y="26" width="6" height="1" fill="#f2ede0"/>
  <rect x="51" y="26" width="6" height="1" fill="#1a1410"/>
  <rect x="57" y="26" width="3" height="1" fill="#c8b888"/>
  <rect x="60" y="26" width="1" height="1" fill="#1a1410"/>
  <rect x="35" y="27" width="1" height="1" fill="#1a1410"/>
  <rect x="36" y="27" width="3" height="1" fill="#c8b888"/>
  <rect x="39" y="27" width="1" height="1" fill="#1a1410"/>
  <rect x="40" y="27" width="1" height="1" fill="#ffffff"/>
  <rect x="41" y="27" width="2" height="1" fill="#f0f0e0"/>
  <rect x="43" y="27" width="1" height="1" fill="#ddaa22"/>
  <rect x="44" y="27" width="1" height="1" fill="#1a1410"/>
  <rect x="45" y="27" width="6" height="1" fill="#f2ede0"/>
  <rect x="51" y="27" width="1" height="1" fill="#1a1410"/>
  <rect x="52" y="27" width="1" height="1" fill="#ddaa22"/>
  <rect x="53" y="27" width="2" height="1" fill="#f0f0e0"/>
  <rect x="55" y="27" width="1" height="1" fill="#ffffff"/>
  <rect x="56" y="27" width="1" height="1" fill="#1a1410"/>
  <rect x="57" y="27" width="3" height="1" fill="#c8b888"/>
  <rect x="60" y="27" width="1" height="1" fill="#1a1410"/>
  <rect x="32" y="28" width="4" height="1" fill="#b0a888"/>
  <rect x="36" y="28" width="3" height="1" fill="#c8b888"/>
  <rect x="39" y="28" width="1" height="1" fill="#1a1410"/>
  <rect x="40" y="28" width="2" height="1" fill="#f0f0e0"/>
  <rect x="42" y="28" width="2" height="1" fill="#ddaa22"/>
  <rect x="44" y="28" width="1" height="1" fill="#1a1410"/>
  <rect x="45" y="28" width="6" height="1" fill="#f2ede0"/>
  <rect x="51" y="28" width="1" height="1" fill="#1a1410"/>
  <rect x="52" y="28" width="2" height="1" fill="#ddaa22"/>
  <rect x="54" y="28" width="2" height="1" fill="#f0f0e0"/>
  <rect x="56" y="28" width="1" height="1" fill="#1a1410"/>
  <rect x="57" y="28" width="3" height="1" fill="#c8b888"/>
  <rect x="60" y="28" width="4" height="1" fill="#b0a888"/>
  <rect x="35" y="29" width="1" height="1" fill="#1a1410"/>
  <rect x="36" y="29" width="3" height="1" fill="#c8b888"/>
  <rect x="39" y="29" width="1" height="1" fill="#1a1410"/>
  <rect x="40" y="29" width="1" height="1" fill="#f0f0e0"/>
  <rect x="41" y="29" width="1" height="1" fill="#ddaa22"/>
  <rect x="42" y="29" width="1" height="1" fill="#1a1410"/>
  <rect x="43" y="29" width="1" height="1" fill="#ddaa22"/>
  <rect x="44" y="29" width="1" height="1" fill="#1a1410"/>
  <rect x="45" y="29" width="6" height="1" fill="#f2ede0"/>
  <rect x="51" y="29" width="1" height="1" fill="#1a1410"/>
  <rect x="52" y="29" width="1" height="1" fill="#ddaa22"/>
  <rect x="53" y="29" width="1" height="1" fill="#1a1410"/>
  <rect x="54" y="29" width="1" height="1" fill="#ddaa22"/>
  <rect x="55" y="29" width="1" height="1" fill="#f0f0e0"/>
  <rect x="56" y="29" width="1" height="1" fill="#1a1410"/>
  <rect x="57" y="29" width="3" height="1" fill="#c8b888"/>
  <rect x="60" y="29" width="1" height="1" fill="#1a1410"/>
  <rect x="32" y="30" width="4" height="1" fill="#b0a888"/>
  <rect x="36" y="30" width="3" height="1" fill="#f2ede0"/>
  <rect x="39" y="30" width="6" height="1" fill="#5a4830"/>
  <rect x="45" y="30" width="6" height="1" fill="#f2ede0"/>
  <rect x="51" y="30" width="6" height="1" fill="#5a4830"/>
  <rect x="57" y="30" width="3" height="1" fill="#f2ede0"/>
  <rect x="60" y="30" width="4" height="1" fill="#b0a888"/>
  <rect x="35" y="31" width="1" height="1" fill="#1a1410"/>
  <rect x="36" y="31" width="24" height="1" fill="#f2ede0"/>
  <rect x="60" y="31" width="1" height="1" fill="#1a1410"/>
  <rect x="32" y="32" width="4" height="1" fill="#b0a888"/>
  <rect x="36" y="32" width="10" height="1" fill="#f2ede0"/>
  <rect x="46" y="32" width="4" height="1" fill="#e07878"/>
  <rect x="50" y="32" width="10" height="1" fill="#f2ede0"/>
  <rect x="60" y="32" width="4" height="1" fill="#b0a888"/>
  <rect x="35" y="33" width="1" height="1" fill="#1a1410"/>
  <rect x="36" y="33" width="11" height="1" fill="#f2ede0"/>
  <rect x="47" y="33" width="2" height="1" fill="#e07878"/>
  <rect x="49" y="33" width="11" height="1" fill="#f2ede0"/>
  <rect x="60" y="33" width="1" height="1" fill="#1a1410"/>
  <rect x="35" y="34" width="1" height="1" fill="#1a1410"/>
  <rect x="36" y="34" width="11" height="1" fill="#f2ede0"/>
  <rect x="47" y="34" width="1" height="1" fill="#e07878"/>
  <rect x="48" y="34" width="12" height="1" fill="#f2ede0"/>
  <rect x="60" y="34" width="1" height="1" fill="#1a1410"/>
  <rect x="35" y="35" width="1" height="1" fill="#1a1410"/>
  <rect x="36" y="35" width="9" height="1" fill="#f2ede0"/>
  <rect x="45" y="35" width="1" height="1" fill="#aa5060"/>
  <rect x="46" y="35" width="4" height="1" fill="#f2ede0"/>
  <rect x="50" y="35" width="1" height="1" fill="#aa5060"/>
  <rect x="51" y="35" width="9" height="1" fill="#f2ede0"/>
  <rect x="60" y="35" width="1" height="1" fill="#1a1410"/>
  <rect x="36" y="36" width="1" height="1" fill="#1a1410"/>
  <rect x="37" y="36" width="9" height="1" fill="#f2ede0"/>
  <rect x="46" y="36" width="4" height="1" fill="#aa5060"/>
  <rect x="50" y="36" width="9" height="1" fill="#f2ede0"/>
  <rect x="59" y="36" width="1" height="1" fill="#1a1410"/>
  <rect x="36" y="37" width="1" height="1" fill="#1a1410"/>
  <rect x="37" y="37" width="22" height="1" fill="#f2ede0"/>
  <rect x="59" y="37" width="1" height="1" fill="#1a1410"/>
  <rect x="37" y="38" width="1" height="1" fill="#1a1410"/>
  <rect x="38" y="38" width="9" height="1" fill="#4488cc"/>
  <rect x="47" y="38" width="2" height="1" fill="#ffcc00"/>
  <rect x="49" y="38" width="9" height="1" fill="#4488cc"/>
  <rect x="58" y="38" width="1" height="1" fill="#1a1410"/>
  <rect x="39" y="39" width="1" height="1" fill="#1a1410"/>
  <rect x="40" y="39" width="7" height="1" fill="#4488cc"/>
  <rect x="47" y="39" width="2" height="1" fill="#ffcc00"/>
  <rect x="49" y="39" width="7" height="1" fill="#4488cc"/>
  <rect x="56" y="39" width="1" height="1" fill="#1a1410"/>
  <rect x="46" y="40" width="4" height="1" fill="#ffcc00"/>
  <rect x="45" y="41" width="1" height="1" fill="#1a1410"/>
  <rect x="46" y="41" width="5" height="1" fill="#ffcc00"/>
  <rect x="51" y="41" width="1" height="1" fill="#1a1410"/>
  <rect x="44" y="42" width="1" height="1" fill="#1a1410"/>
  <rect x="45" y="42" width="6" height="1" fill="#ffcc00"/>
  <rect x="51" y="42" width="1" height="1" fill="#1a1410"/>
  <rect x="45" y="43" width="1" height="1" fill="#1a1410"/>
  <rect x="46" y="43" width="5" height="1" fill="#ffcc00"/>
  <rect x="51" y="43" width="1" height="1" fill="#1a1410"/>
  <rect x="46" y="44" width="4" height="1" fill="#ffcc00"/>
</svg>